<svg width="1024" height="512" xmlns="http://www.w3.org/2000/svg">
 <!-- Created with Method Draw - http://github.com/duopixel/Method-Draw/ -->
 <g>
  <title>background</title>
  <rect fill="#fff" id="canvas_background" height="514" width="514" y="-1" x="-1"/>
  <g display="none" overflow="visible" y="0" x="0" height="100%" width="100%" id="canvasGrid">
   <rect fill="url(#gridpattern)" stroke-width="0" y="0" x="0" height="100%" width="100%"/>
  </g>
 </g>
 <g>
  <title>Layer 1</title>
  <ellipse stroke="null" ry="63" rx="64" id="svg_5" cy="192.500001" cx="171.000001" stroke-width="1.5" fill="#ffe55c"/>
  <path id="svg_4" d="m378.384111,234.386623c0.262879,-2.747463 0.415072,-5.523105 0.415072,-8.326926c0,-48.63714 -38.71242,-88.059712 -86.473419,-88.059712c-37.065966,0 -68.597634,23.797256 -80.897613,57.189499c-8.149255,-9.101852 -19.771282,-14.920838 -32.818392,-14.920838c-24.599958,0 -44.53727,20.303047 -44.53727,45.354274c0,2.958806 0.318222,5.847165 0.857816,8.636897c-32.818392,5.509016 -57.930273,34.322153 -57.930273,69.292426c0,38.915348 30.978238,70.447769 69.178735,70.447769l219.642484,0c38.214333,0 69.178735,-31.532422 69.178735,-70.447769c0.013836,-34.533497 -24.420093,-63.135291 -56.615877,-69.16562z" stroke-width="1.5" fill="#1ac6ff"/>
  <text stroke="null" transform="matrix(1.224575603922682,0,0,1.165410841496211,-53.6562270783061,-71.3534994175136) " font-style="italic" font-weight="normal" xml:space="preserve" text-anchor="start" font-family="Georgia, Times, 'Times New Roman', serif" font-size="36" id="svg_8" y="419.522476" x="146.196885" stroke-width="0" fill="#00bfff">Blue Dream</text>
  <text font-weight="bold" xml:space="preserve" text-anchor="start" font-family="'Palatino Linotype', 'Book Antiqua', Palatino, serif" font-size="50" id="svg_9" y="308.5" x="206" stroke-width="0" fill="#ffffff">AQI</text>
  <g id="svg_10">
   <path transform="rotate(0.6698114275932312 401.2975463867122,391.86999511718716) " stroke="null" id="svg_6" d="m373.196064,417.65687c2.401031,-6.104418 5.687382,-11.274227 8.804694,-13.85078c3.339698,-2.760366 1.857988,-3.957725 -1.587182,-1.282594c-1.449426,1.125451 -1.863547,0.30825 -1.863547,-3.677421c0,-9.509494 6.348525,-15.393693 21.623414,-20.041866c12.924822,-3.933063 22.453717,-8.356047 26.404602,-12.256123l3.219482,-3.178096l0,5.529574c0,6.837401 -2.731924,17.167057 -5.755917,21.763652c-3.207916,4.876184 -14.20344,13.876899 -19.599122,16.043457c-4.834053,1.941059 -15.15804,2.512495 -20.675727,1.144415c-2.74969,-0.681762 -3.622356,-0.160861 -5.047101,3.012656c-0.947417,2.110304 -1.722582,5.11254 -1.722582,6.671611c0,1.769978 -0.914237,2.834668 -2.434083,2.834668c-1.805121,0 -2.158331,-0.701062 -1.366929,-2.713152l-0.000002,0z" stroke-width="1.5" fill="#a8cb62"/>
   <path stroke="null" transform="rotate(21.1513671875 408.50735473632807,395.7630920410157) " id="svg_7" d="m382.790955,423.85625c2.197245,-6.650376 5.204671,-12.282555 8.057404,-15.089546c3.056245,-3.007244 1.700294,-4.31169 -1.452472,-1.397304c-1.326407,1.226107 -1.70538,0.335819 -1.70538,-4.006317c0,-10.359992 5.8097,-16.770452 19.78815,-21.834343c11.827841,-4.284823 20.547981,-9.103384 24.163539,-13.352269l2.946232,-3.462334l0,6.02412c0,7.448914 -2.500055,18.70242 -5.26739,23.710118c-2.935647,5.312293 -12.997938,15.118002 -17.935667,17.478329c-4.423768,2.11466 -13.871517,2.737204 -18.920896,1.246767c-2.516313,-0.742736 -3.314912,-0.175248 -4.618733,3.282098c-0.867007,2.299041 -1.57638,5.569788 -1.57638,7.268297c0,1.928279 -0.836642,3.088191 -2.227493,3.088191c-1.651913,0 -1.975145,-0.763762 -1.250912,-2.955807l-0.000002,0z" stroke-width="1.5" fill="#99c250"/>
  </g>
 </g>
</svg>