<svg height="2048" width="2048" xmlns="http://www.w3.org/2000/svg">
 <!-- Created with Method Draw - http://github.com/duopixel/Method-Draw/ -->
 <g>
  <title>background</title>
  <rect fill="#fff" height="2050" id="canvas_background" width="2050" x="-1" y="-1" />
 </g>
 <g>
  <title>Layer 1</title>
  <ellipse cx="694.344959" cy="670.177746" fill="#ffe55c" id="svg_5" rx="230.670365" ry="216.33675"
          stroke="null" stroke-width="1.5" />
  <path d="m1496.760276,816.83681c0.982512,-9.344615 1.551321,-18.785075 1.551321,-28.32138c0,-165.423821 -144.687338,-299.507236 -323.193667,-299.507236c-138.533708,0 -256.383055,80.93884 -302.354124,194.511964c-30.457752,-30.957059 -73.89499,-50.748476 -122.658452,-50.748476c-91.94214,0 -166.457665,69.054358 -166.457665,154.258179c0,10.063455 1.189345,19.887262 3.206095,29.375679c-122.658489,18.737152 -216.513925,116.735918 -216.513925,235.676211c0,132.358233 115.780907,239.605768 258.554948,239.605768l820.911888,0c142.825731,0 258.554948,-107.247536 258.554948,-239.605768c0.05169,-117.454724 -91.269915,-214.734685 -211.601367,-235.244941z"
          fill="#1ac6ff" id="svg_4" stroke="null" stroke-width="1.5" />
  <text fill="#00bfff" font-family="Georgia, Times, 'Times New Roman', serif" font-size="90"
          font-style="italic" font-weight="normal" id="svg_8" opacity="0.99" stroke="null"
          stroke-width="0" text-anchor="start"
          transform="matrix(1.7577552260713267,0,0,1.7595472792582427,-621.2415826219252,-1506.130615495253) "
          x="604.06491" y="1734.289794" xml:space="preserve">Blue Dream</text>
  <text fill="#ffffff" font-family="'Palatino Linotype', 'Book Antiqua', Palatino, serif"
          font-size="50" font-weight="bold" id="svg_9" stroke="null" stroke-width="0"
          text-anchor="start"
          transform="matrix(4.153030341709571,0,0,3.0337044204163344,-2700.824009602596,-2016.6205605738353) "
          x="849.383242" y="1004.517186" xml:space="preserve">AQI</text>
  <g id="svg_10" stroke="null">
   <path d="m1397.544252,1560.783146c10.073039,-22.665177 23.708574,-41.805591 36.531845,-51.28035c13.738088,-10.150721 7.758335,-14.681528 -6.405399,-4.853357c-5.958875,4.134795 -7.607159,1.068527 -7.417317,-13.79828c0.45295,-35.47105 26.598366,-57.14265 89.052733,-73.814518c52.845688,-14.106942 91.878972,-30.189445 108.161456,-44.564668l13.268185,-11.714124l-0.26338,20.625654c-0.325674,25.503982 -11.94812,63.91511 -24.487404,80.928855c-13.301969,18.048576 -58.52864,51.142351 -80.614919,58.988428c-19.787345,7.029476 -61.876571,8.710776 -84.291584,3.367134c-11.170316,-2.662917 -14.750519,-0.757982 -20.706395,11.017285c-3.960496,7.830278 -7.261653,18.994987 -7.335914,24.810419c-0.084306,6.60214 -3.859816,10.533634 -10.051949,10.467357c-7.354462,-0.078718 -8.760118,-2.70912 -5.439916,-10.179834l-0.000041,0z"
           fill="#a8cb62" id="svg_16" stroke="null" stroke-width="1.5" />
   <path d="m1403.615204,1543.465924c18.126947,-20.179187 37.8356,-35.725525 52.802782,-41.651231c16.034925,-6.348448 12.80015,-12.711781 -3.465042,-6.816278c-6.842971,2.48027 -6.97414,-1.127159 -0.590296,-16.233506c15.231328,-36.042504 46.732793,-50.524567 107.295634,-49.326577c51.245165,1.013612 91.46583,-4.012698 111.451644,-13.928001l16.285966,-8.079786l-8.856703,20.957971c-10.951439,25.914829 -36.996612,61.700759 -54.87476,75.397671c-18.965601,14.530091 -71.618555,35.100178 -93.852005,36.665457c-19.919239,1.402427 -56.735808,-9.148601 -73.732111,-21.130436c-8.469954,-5.97101 -12.338948,-5.071641 -22.376462,5.201542c-6.674688,6.831367 -14.178961,17.255509 -16.676122,23.164641c-2.834956,6.70847 -7.719496,9.617706 -13.004703,7.74559c-6.27723,-2.223508 -6.382637,-5.31576 -0.407785,-11.967044l-0.000038,-0.000013z"
           fill="#99c250" id="svg_17" stroke="null" stroke-width="1.5" />
  </g>
  <text fill="#ffffff" font-family="'Shadows Into Light', serif" font-size="20" id="svg_19"
          stroke="null" stroke-opacity="null" stroke-width="0" text-anchor="start" x="1435.675811"
          y="1258.848992" xml:space="preserve">志威</text>
 </g>
</svg>