<svg height="2048" width="2048" xmlns="http://www.w3.org/2000/svg">
 <!-- Created with Method Draw - http://github.com/duopixel/Method-Draw/ -->

 <g>
  <title>background</title>
	 <rect fill="#fff" height="2050" id="canvas_background" width="2050" x="-1" y="-1" />
 </g>
 <g>
  <title>Layer 1</title>
	 <ellipse cx="560" cy="590" fill="#ffe55c" id="svg_5" rx="365" ry="365" stroke="null"
			 stroke-width="1.5" />
	 <path d="m1575.175572,852.172499c1.183918,-11.672966 1.869333,-23.465667 1.869333,-35.378093c0,-206.641776 -174.347318,-374.134184 -389.446293,-374.134184c-166.932239,0 -308.939947,101.106027 -364.33478,242.977682c-36.701402,-38.670492 -89.042983,-63.39326 -147.802657,-63.39326c-110.789683,0 -200.580407,86.260343 -200.580407,192.694033c0,12.570934 1.433147,24.842484 3.863317,36.695092c-147.802692,23.405813 -260.897886,145.822518 -260.897886,294.398653c0,165.337366 139.515258,299.30732 311.557056,299.30732l989.19354,0c172.104105,0 311.557056,-133.969955 311.557056,-299.30732c0.06229,-146.720415 -109.979653,-268.239205 -254.978279,-293.859923z"
			 fill="#1ac6ff" id="svg_4" opacity="0.7" stroke="null" stroke-width="1.5" />
	 <text fill="#00bfff" font-family="Georgia, Times, 'Times New Roman', serif" font-size="220"
			 font-style="italic" font-weight="normal" id="svg_8" opacity="0.99" stroke="null"
			 stroke-width="0" text-anchor="start" x="260" y="1790"
			 xml:space="preserve">Blue Dream</text>
	 <text fill="#ffffff" font-family="'Palatino Linotype', 'Book Antiqua', Palatino, serif"
			 font-size="50" font-weight="bold" id="svg_9" stroke="null" stroke-width="0"
			 text-anchor="start"
			 transform="matrix(5.689374343259254,0,0,4.6824882545491935,-4005.92208003018,-3721.9223032597697) "
			 x="834.091354" y="1039.179223" xml:space="preserve">AQI</text>
  <g id="svg_10" stroke="null">
	  <path d="m1621.699744,1820.02529c10.07304,-22.66518 23.70858,-41.8056 36.53185,-51.28035c13.73808,-10.15072 7.75833,-14.68153 -6.4054,-4.85336c-5.95888,4.13479 -7.60716,1.06853 -7.41732,-13.79828c0.45295,-35.47105 26.59837,-57.14265 89.05273,-73.81452c52.84569,-14.10694 91.87898,-30.18944 108.16146,-44.56467l13.26818,-11.71412l-0.26338,20.62565c-0.32567,25.50398 -11.94812,63.91511 -24.4874,80.92886c-13.30197,18.04857 -58.52864,51.14235 -80.61492,58.98843c-19.78734,7.02947 -61.87657,8.71077 -84.29158,3.36713c-11.17032,-2.66292 -14.75052,-0.75798 -20.7064,11.01729c-3.96049,7.83027 -7.26165,18.99498 -7.33591,24.81041c-0.08431,6.60214 -3.85982,10.53364 -10.05195,10.46736c-7.35446,-0.07872 -8.76012,-2.70912 -5.43992,-10.17983l-0.00004,0z"
			  fill="#a8cb62" id="svg_16" stroke="null" stroke-width="1.5" />
	  <path d="m1627.770694,1802.70806c18.12695,-20.17918 37.8356,-35.72552 52.80279,-41.65123c16.03492,-6.34844 12.80015,-12.71178 -3.46505,-6.81627c-6.84297,2.48027 -6.97414,-1.12716 -0.59029,-16.23351c15.23133,-36.04251 46.73279,-50.52457 107.29563,-49.32658c51.24517,1.01361 91.46583,-4.0127 111.45165,-13.928l16.28596,-8.07979l-8.8567,20.95798c-10.95144,25.91483 -36.99661,61.70076 -54.87476,75.39767c-18.9656,14.53009 -71.61856,35.10017 -93.85201,36.66545c-19.91924,1.40243 -56.7358,-9.1486 -73.73211,-21.13043c-8.46995,-5.97101 -12.33895,-5.07164 -22.37646,5.20154c-6.67469,6.83137 -14.17896,17.25551 -16.67612,23.16464c-2.83496,6.70847 -7.7195,9.61771 -13.0047,7.74559c-6.27723,-2.22351 -6.38264,-5.31576 -0.40779,-11.96704l-0.00004,-0.00002z"
			  fill="#99c250" id="svg_17" stroke="null" stroke-width="1.5" />
  </g>
	 <text fill="#ffffff" font-family="'Shadows Into Light', serif" font-size="20" id="svg_19"
			 stroke="null" stroke-opacity="null" stroke-width="0" text-anchor="start" x="1520"
			 y="1414.285712" xml:space="preserve">志威</text>
 </g>
</svg>